<?xml version="1.0" encoding="UTF-8"?><svg id="Ebene_2" xmlns="http://www.w3.org/2000/svg" xmlns:xlink="http://www.w3.org/1999/xlink" viewBox="0 0 814.88 136.66"><defs><style>.cls-1{fill:#fff;}.cls-2{fill:url(#Unbenannter_Verlauf_7);}</style><linearGradient id="Unbenannter_Verlauf_7" x1="319.88" y1="129.85" x2="814.88" y2="129.85" gradientTransform="matrix(1, 0, 0, 1, 0, 0)" gradientUnits="userSpaceOnUse"><stop offset="0" stop-color="red"/><stop offset=".5" stop-color="lime"/><stop offset="1" stop-color="blue"/></linearGradient></defs><g id="Ebene_1-2"><g><rect class="cls-2" x="319.88" y="124.32" width="495" height="11.06"/><g><path class="cls-1" d="M0,.38H27.91V135.27H0V.38ZM36.47,132.35c-4.48-2.88-7.81-6.94-9.98-12.2l1.43-21.99c0,3.15,.61,5.84,1.83,8.07s3.01,3.93,5.35,5.1c2.34,1.18,5.18,1.76,8.51,1.76,5.23,0,9.29-1.58,12.17-4.73,2.89-3.15,4.33-7.61,4.33-13.36v-15.31c0-5.88-1.44-10.44-4.33-13.68-2.89-3.25-6.95-4.87-12.17-4.87-3.33,0-6.16,.6-8.51,1.81s-4.13,2.95-5.35,5.24c-1.22,2.29-1.83,5.07-1.83,8.35l-2.14-21.34c2.85-5.63,6.6-9.97,11.26-13.03,4.65-3.06,9.8-4.59,15.43-4.59,7.47,0,13.87,1.64,19.2,4.92,5.33,3.28,9.39,8.07,12.17,14.38,2.78,6.31,4.18,13.89,4.18,22.73v15.4c0,8.78-1.39,16.28-4.18,22.5-2.79,6.22-6.84,10.96-12.17,14.24-5.33,3.28-11.73,4.92-19.2,4.92-6.18,0-11.51-1.44-15.99-4.31Z"/><path class="cls-1" d="M138.85,97.51c0,4.64,1.44,8.24,4.33,10.81,2.89,2.57,6.94,3.85,12.17,3.85s9.25-1.31,12.07-3.94c2.82-2.63,4.23-6.39,4.23-11.27l1.43,21.06c-1.97,5.26-5.25,9.68-9.83,13.27-4.58,3.59-10.17,5.38-16.76,5.38-11.34,0-20.1-3.32-26.28-9.97-6.18-6.65-9.27-16.06-9.27-28.25V38.97h27.91v58.54Zm32.8-58.54h27.81v96.3h-27.81V38.97Z"/><path class="cls-1" d="M218.82,38.97h56.95v21.71h-56.95v-21.71Zm11.21-13.08c0-8.54,2.16-14.92,6.47-19.16,4.31-4.24,10.95-6.35,19.92-6.35h19.36V23.02h-11.82c-1.97,0-3.46,.68-4.48,2.04-1.02,1.36-1.53,3.12-1.53,5.29v104.93h-27.91V25.89Z"/><path class="cls-1" d="M284.94,38.97h56.95v21.71h-56.95v-21.71Zm11.21-13.08c0-8.54,2.16-14.92,6.47-19.16,4.31-4.24,10.95-6.35,19.92-6.35h19.36V23.02h-11.82c-1.97,0-3.46,.68-4.48,2.04-1.02,1.36-1.53,3.12-1.53,5.29v104.93h-27.91V25.89Z"/></g><g><path class="cls-1" d="M373.88,0h11.03V103.76h-11.03V0Zm19.45,101.87c-4.34-1.97-7.51-5.22-9.5-9.74l1.07-15.49c0,3.24,.82,6.34,2.45,9.31,1.63,2.97,3.98,5.39,7.05,7.24s6.64,2.78,10.72,2.78c6.64,0,11.77-1.84,15.39-5.53,3.62-3.69,5.44-8.86,5.44-15.52v-16.06c0-6.8-1.81-12.07-5.44-15.81-3.63-3.73-8.76-5.6-15.39-5.6-4.09,0-7.66,.92-10.72,2.75-3.06,1.83-5.41,4.2-7.05,7.1-1.63,2.9-2.45,5.95-2.45,9.13l-1.61-14.27c2.76-4.8,6.42-8.27,10.99-10.38,4.57-2.12,9.89-3.18,15.97-3.18,5.62,0,10.43,1.18,14.44,3.53,4.01,2.35,7.06,5.79,9.15,10.31,2.09,4.52,3.14,9.97,3.14,16.34v16.13c0,6.28-1.07,11.66-3.22,16.13-2.14,4.47-5.28,7.89-9.42,10.24s-9.09,3.53-14.86,3.53c-6.43,0-11.82-.99-16.16-2.96Z"/><path class="cls-1" d="M471.99,101.05c-4.9-2.52-8.64-6.2-11.22-11.03-2.58-4.83-3.87-10.64-3.87-17.45v-12.06c0-6.71,1.29-12.45,3.87-17.23,2.58-4.78,6.32-8.42,11.22-10.92s10.8-3.75,17.69-3.75,12.79,1.25,17.69,3.75,8.64,6.14,11.22,10.92c2.58,4.78,3.87,10.53,3.87,17.23v12.27c0,6.76-1.29,12.52-3.87,17.31-2.58,4.78-6.32,8.43-11.22,10.95-4.9,2.52-10.8,3.78-17.69,3.78s-12.79-1.26-17.69-3.78Zm33.74-11.67c3.8-3.92,5.71-9.46,5.71-16.59v-12.27c0-7.09-1.9-12.58-5.71-16.48-3.8-3.9-9.18-5.85-16.12-5.85s-12.23,1.95-16.01,5.85c-3.78,3.9-5.67,9.4-5.67,16.48v12.27c0,7.14,1.89,12.67,5.67,16.59,3.78,3.92,9.11,5.89,16.01,5.89s12.32-1.96,16.12-5.89Z"/><path class="cls-1" d="M555.71,84.28c0,3.14,.83,5.58,2.49,7.31,1.66,1.74,3.97,2.6,6.93,2.6h7.35v9.56h-9.19c-5.92,0-10.51-1.71-13.75-5.14-3.24-3.43-4.86-8.25-4.86-14.49V0h11.03V84.28Z"/><path class="cls-1" d="M644.17,37.68l-42.81,56.87h44.88v9.21h-59.2v-8.28l43.81-56.59h-42.74v-9.21h56.06v7.99Z"/><path class="cls-1" d="M680.62,100.94c-5.21-2.59-9.18-6.37-11.91-11.35-2.73-4.97-4.1-10.95-4.1-17.95v-8.35c0-7.33,1.31-13.58,3.94-18.77,2.63-5.18,6.45-9.13,11.45-11.85,5-2.71,11.03-4.07,18.08-4.07,6.64,0,12.3,1.33,17,4,4.7,2.67,8.28,6.55,10.76,11.67,2.48,5.11,3.72,11.26,3.72,18.45v8.49h-57.44v-9.28h47.18v-.71c0-7.33-1.85-13-5.55-17.02-3.7-4.02-8.92-6.03-15.66-6.03-7.4,0-13.12,2.12-17.16,6.35-4.03,4.24-6.05,10.23-6.05,17.98v9.42c0,7.42,2.14,13.17,6.43,17.23,4.29,4.07,10.34,6.1,18.15,6.1,3.68,0,7.31-.71,10.91-2.14s6.8-3.45,9.61-6.07l7.51,6.71c-3.88,3.52-8.27,6.24-13.17,8.17s-9.86,2.89-14.86,2.89c-7.35,0-13.63-1.3-18.84-3.89Z"/><path class="cls-1" d="M751.01,29.69h11.03V103.76h-11.03V29.69Zm52.85,29.19c0-6.57-1.85-11.66-5.55-15.27-3.7-3.61-8.92-5.42-15.66-5.42s-11.6,1.61-15.2,4.82-5.4,7.77-5.4,13.67l-1.61-14.27c2.81-4.85,6.53-8.36,11.18-10.53,4.65-2.16,10.03-3.25,16.16-3.25,8.63,0,15.3,2.63,20.03,7.89,4.72,5.26,7.08,12.69,7.08,22.3v44.96h-11.03V58.87Z"/></g></g></g></svg>