<?xml version="1.0" encoding="UTF-8"?><svg id="Ebene_2" xmlns="http://www.w3.org/2000/svg" xmlns:xlink="http://www.w3.org/1999/xlink" viewBox="0 0 145.16 136.56"><defs><style>.cls-1{fill:#fff;}.cls-2{fill:url(#Unbenannter_Verlauf_7);}</style><linearGradient id="Unbenannter_Verlauf_7" x1="53.16" y1="132.85" x2="145.16" y2="132.85" gradientTransform="matrix(1, 0, 0, 1, 0, 0)" gradientUnits="userSpaceOnUse"><stop offset="0" stop-color="red"/><stop offset=".5" stop-color="lime"/><stop offset="1" stop-color="blue"/></linearGradient></defs><g id="Ebene_1-2"><g><rect class="cls-2" x="53.16" y="129.85" width="92" height="6"/><path class="cls-1" d="M0,.27H27.91V135.17H0V.27ZM36.47,132.24c-4.48-2.88-7.81-6.94-9.98-12.2l1.43-21.99c0,3.15,.61,5.84,1.83,8.07s3.01,3.93,5.35,5.1c2.34,1.18,5.18,1.76,8.51,1.76,5.23,0,9.29-1.58,12.17-4.73,2.89-3.15,4.33-7.61,4.33-13.36v-15.31c0-5.88-1.44-10.44-4.33-13.68-2.89-3.25-6.95-4.87-12.17-4.87-3.33,0-6.16,.6-8.51,1.81s-4.13,2.95-5.35,5.24c-1.22,2.29-1.83,5.07-1.83,8.35l-2.14-21.34c2.85-5.63,6.6-9.97,11.26-13.03,4.65-3.06,9.8-4.59,15.43-4.59,7.47,0,13.87,1.64,19.2,4.92,5.33,3.28,9.39,8.07,12.17,14.38,2.78,6.31,4.18,13.89,4.18,22.73v15.4c0,8.78-1.39,16.28-4.18,22.5-2.79,6.22-6.84,10.96-12.17,14.24-5.33,3.28-11.73,4.92-19.2,4.92-6.18,0-11.51-1.44-15.99-4.31Z"/><path class="cls-1" d="M102.45,0h7.46V70.22h-7.46V0Zm13.17,68.94c-2.94-1.34-5.08-3.53-6.43-6.59l.73-10.48c0,2.19,.55,4.29,1.66,6.3,1.11,2.01,2.7,3.65,4.77,4.9s4.49,1.88,7.26,1.88c4.49,0,7.96-1.25,10.42-3.74,2.45-2.49,3.68-6,3.68-10.5v-10.87c0-4.6-1.23-8.17-3.68-10.7-2.45-2.53-5.93-3.79-10.42-3.79-2.77,0-5.18,.62-7.26,1.86-2.07,1.24-3.66,2.84-4.77,4.81-1.11,1.96-1.66,4.03-1.66,6.18l-1.09-9.66c1.87-3.25,4.35-5.59,7.44-7.03,3.09-1.43,6.69-2.15,10.81-2.15,3.8,0,7.06,.8,9.77,2.39,2.71,1.59,4.78,3.92,6.19,6.98,1.42,3.06,2.13,6.75,2.13,11.06v10.91c0,4.25-.73,7.89-2.18,10.91-1.45,3.03-3.58,5.34-6.38,6.93s-6.15,2.39-10.06,2.39c-4.35,0-8-.67-10.94-2Z"/></g></g></svg>